<svg id="Capa_1" enable-background="new 0 0 512 512" height="512" viewBox="0 0 512 512" width="512" xmlns="http://www.w3.org/2000/svg"><g><g><g><path d="m54.012 418.362 193.272-334.972c3.898-6.755 13.577-6.755 17.474 0l193.272 334.972c3.92 6.794-.941 15.315-8.737 15.315h-386.544c-7.796-.001-12.657-8.522-8.737-15.315z" fill="#f6df7f"/><path d="m458.031 418.362-193.273-334.972c-3.898-6.755-13.577-6.755-17.474 0l-6.263 10.855 187.009 324.117c3.92 6.794-.941 15.315-8.737 15.315h30c7.796-.001 12.658-8.522 8.738-15.315z" fill="#efd06f"/><g><path d="m454.759 322.485c5.906 3.904 5.906 12.577 0 16.48-28.746 19-106.87 64.265-198.738 64.265s-169.992-45.265-198.737-64.265c-5.906-3.904-5.906-12.577 0-16.48 28.746-19 106.87-64.265 198.738-64.265s169.991 45.265 198.737 64.265z" fill="#eaf6ff"/><path d="m454.762 322.487c-28.743-18.998-106.869-64.267-198.741-64.267-5.044 0-10.044.144-15 .405 47.84 2.521 91.269 16.654 124.979 31.748 34.881 15.619 34.881 65.084 0 80.703-33.71 15.095-77.139 29.228-124.979 31.748 4.956.261 9.956.405 15 .405 91.871 0 169.998-45.268 198.741-64.267 5.912-3.907 5.912-12.567 0-16.475z" fill="#d8ecfe"/><path d="m337.264 330.725c0-29.403-15.621-55.156-39.016-69.417-13.643-1.965-27.764-3.088-42.227-3.088s-28.584 1.123-42.227 3.088c-23.395 14.261-39.016 40.014-39.016 69.417s15.621 55.155 39.016 69.417c13.643 1.965 27.764 3.088 42.227 3.088s28.585-1.123 42.227-3.088c23.395-14.262 39.016-40.014 39.016-69.417z" fill="#685e68"/><path d="m298.248 261.308c-13.643-1.965-27.764-3.088-42.227-3.088-5.044 0-10.044.145-15 .406 9.252.488 18.343 1.402 27.227 2.682 23.394 14.261 39.016 40.014 39.016 69.417s-15.621 55.155-39.016 69.417c-8.884 1.28-17.975 2.194-27.227 2.682 4.956.261 9.956.406 15 .406 14.463 0 28.585-1.123 42.227-3.088 23.394-14.262 39.016-40.014 39.016-69.417s-15.621-55.156-39.016-69.417z" fill="#554e56"/><ellipse cx="256.021" cy="330.725" fill="#eaf6ff" rx="28.965" ry="28.965" transform="matrix(.707 -.707 .707 .707 -158.871 277.902)"/></g></g></g><path d="m256.021 51.114c4.143 0 7.5-3.358 7.5-7.5v-36.114c0-4.142-3.357-7.5-7.5-7.5-4.142 0-7.5 3.358-7.5 7.5v36.114c0 4.142 3.358 7.5 7.5 7.5zm-86.662 32.541 31.593 17.499c3.554 1.975 8.165.737 10.194-2.926 2.007-3.623.697-8.188-2.927-10.195l-31.592-17.499c-3.624-2.008-8.187-.697-10.195 2.926-2.007 3.624-.696 8.188 2.927 10.195zm-21.804 39.365 31.592 17.499c3.556 1.975 8.165.737 10.195-2.926 2.007-3.624.697-8.188-2.926-10.195l-31.592-17.499c-3.624-2.007-8.188-.697-10.195 2.926-2.008 3.624-.697 8.188 2.926 10.195zm145.002-57.217 25.537-25.537c2.929-2.929 2.929-7.678 0-10.606-2.929-2.929-7.677-2.929-10.607 0l-25.537 25.537c-2.929 2.929-2.929 7.678 0 10.606 2.928 2.93 7.677 2.929 10.607 0zm-166.806 96.582 31.592 17.499c3.556 1.975 8.165.737 10.195-2.926 2.007-3.624.697-8.188-2.926-10.195l-31.592-17.499c-3.625-2.008-8.188-.697-10.195 2.926-2.008 3.624-.697 8.188 2.926 10.195zm243.878 53.937c2.028 3.662 6.631 4.907 10.194 2.926l31.592-17.499c3.624-2.007 4.934-6.571 2.927-10.195s-6.572-4.934-10.194-2.926l-31.592 17.499c-3.624 2.007-4.934 6.572-2.927 10.195zm20.887 36.322c.329 4.147 3.985 7.216 8.068 6.885l31.592-2.499c4.129-.327 7.212-3.939 6.885-8.068-.326-4.129-3.935-7.216-8.068-6.885l-31.592 2.499c-4.129.327-7.212 3.939-6.885 8.068zm-286.569-50.895 31.592 17.499c3.556 1.975 8.165.737 10.195-2.926 2.007-3.624.697-8.188-2.926-10.195l-31.592-17.499c-3.623-2.008-8.188-.697-10.195 2.926s-.697 8.189 2.926 10.195zm243.877-24.792c2.029 3.662 6.63 4.907 10.194 2.927l31.593-17.499c3.624-2.007 4.934-6.572 2.927-10.195-2.007-3.624-6.572-4.934-10.194-2.927l-31.593 17.499c-3.624 2.008-4.934 6.572-2.927 10.195zm-43.607-78.729c2.028 3.662 6.631 4.907 10.194 2.926l31.592-17.499c3.624-2.007 4.934-6.571 2.927-10.195s-6.572-4.934-10.194-2.926l-31.592 17.499c-3.625 2.007-4.934 6.571-2.927 10.195zm21.803 39.365c2.028 3.662 6.631 4.907 10.194 2.926l31.592-17.499c3.624-2.007 4.934-6.571 2.927-10.195-2.008-3.623-6.572-4.934-10.194-2.926l-31.592 17.499c-3.624 2.007-4.933 6.571-2.927 10.195zm-106.533-71.79c2.929 2.929 7.677 2.929 10.606 0s2.929-7.678 0-10.606l-25.537-25.537c-2.929-2.929-7.678-2.929-10.607 0s-2.929 7.678 0 10.606zm171.534 395.083c-4.143 0-7.5 3.358-7.5 7.5v36.114c0 4.142 3.357 7.5 7.5 7.5s7.5-3.358 7.5-7.5v-36.114c0-4.142-3.357-7.5-7.5-7.5zm-45 0c-4.143 0-7.5 3.358-7.5 7.5v36.114c0 4.142 3.357 7.5 7.5 7.5s7.5-3.358 7.5-7.5v-36.114c0-4.142-3.357-7.5-7.5-7.5zm96.927 4.622c-1.589-3.825-5.98-5.638-9.804-4.049-3.825 1.589-5.638 5.977-4.05 9.803l15 36.115c1.604 3.872 6.056 5.606 9.804 4.049 3.825-1.589 5.638-5.978 4.05-9.803zm-357.763-208.478 31.592 2.499c4.071.326 7.74-2.739 8.068-6.885.327-4.129-2.756-7.741-6.885-8.068l-31.592-2.499c-4.127-.329-7.742 2.755-8.068 6.885-.327 4.129 2.756 7.742 6.885 8.068zm215.836 203.856c-4.143 0-7.5 3.358-7.5 7.5v36.114c0 4.142 3.357 7.5 7.5 7.5s7.5-3.358 7.5-7.5v-36.114c0-4.142-3.357-7.5-7.5-7.5zm163.506-46.274-31.113-53.929c10.315-5.762 18.906-11.115 25.48-15.46 10.152-6.71 10.087-22.327 0-28.994-14.306-9.456-40.062-24.926-73.326-38.46l-114.31-198.127c-6.628-11.721-23.962-11.514-30.473 0l-41.796 72.442c-2.07 3.588-.84 8.174 2.748 10.244 3.586 2.07 8.173.84 10.244-2.748l41.796-72.442c.662-1.147 1.69-1.318 2.244-1.318s1.582.171 2.244 1.318l105.223 182.376c-33.107-11.307-70.779-18.794-107.467-18.794-36.437 0-74.64 7.598-107.467 18.794l45.922-79.593c2.07-3.588.84-8.174-2.748-10.244-3.587-2.071-8.174-.841-10.244 2.748l-55.01 95.344c-33.264 13.534-59.02 29.004-73.326 38.46-10.241 6.769-10.328 22.168 0 28.994 6.351 4.198 14.964 9.584 25.481 15.457l-31.115 53.934c-6.724 11.341 1.71 26.695 15.237 26.566h386.539c13.165.109 21.976-15.127 15.237-26.568zm-248.086-146.106c12.813-1.774 26.044-2.786 39.58-2.786s26.767 1.012 39.58 2.785c21.417 13.635 34.162 36.779 34.162 62.219 0 25.423-12.728 48.554-34.121 62.193-13.394 1.86-26.624 2.812-39.621 2.812-13.536 0-26.767-1.012-39.58-2.786-21.417-13.636-34.163-36.779-34.163-62.219.001-25.44 12.746-48.583 34.163-62.218zm-155.022 64.202c-1.576-1.041-1.581-2.922 0-3.967 25.483-16.837 83.144-44.839 126.441-54.937-13.17 15.695-20.581 35.639-20.581 56.92s7.411 41.225 20.582 56.92c-49.827-11.585-91.879-32.1-126.442-54.936zm387.872 93.472h-386.54c-2.253-.09-3.308-2.054-2.243-4.072l31.35-54.341c43.05 24.497 107.035 42.963 164.163 42.963 35.101 0 70.337-6.446 104.584-17.815 3.932-1.305 6.06-5.55 4.755-9.481s-5.551-6.061-9.481-4.754c-10.615 3.525-21.185 6.508-31.68 8.945 13.16-15.692 20.565-35.628 20.565-56.9 0-21.281-7.411-41.225-20.581-56.92 44.978 10.342 98.804 36.678 126.441 54.937 1.593 1.052 1.577 2.924 0 3.967-17.071 11.278-40.458 24.108-62.487 33.64-3.802 1.645-5.55 6.06-3.904 9.862 1.645 3.801 6.057 5.551 9.861 3.905 9.415-4.073 18.129-8.249 26.094-12.343l31.346 54.334c1.068 2.023.015 3.983-2.243 4.073zm-193.27-58.99c20.106 0 36.465-16.358 36.465-36.465s-16.358-36.465-36.465-36.465-36.465 16.358-36.465 36.465 16.358 36.465 36.465 36.465zm0-57.93c11.836 0 21.465 9.629 21.465 21.465s-9.629 21.465-21.465 21.465-21.465-9.629-21.465-21.465 9.629-21.465 21.465-21.465zm-135 151.626c-4.142 0-7.5 3.358-7.5 7.5v36.114c0 4.142 3.358 7.5 7.5 7.5s7.5-3.358 7.5-7.5v-36.114c0-4.142-3.358-7.5-7.5-7.5zm-42.123.574c-3.826-1.589-8.214.224-9.803 4.049l-15 36.114c-1.589 3.825.224 8.214 4.049 9.803 3.74 1.553 8.2-.174 9.803-4.049l15-36.114c1.589-3.825-.224-8.215-4.049-9.803zm132.123-.574c-4.142 0-7.5 3.358-7.5 7.5v36.114c0 4.142 3.358 7.5 7.5 7.5s7.5-3.358 7.5-7.5v-36.114c0-4.142-3.358-7.5-7.5-7.5zm-45 0c-4.142 0-7.5 3.358-7.5 7.5v36.114c0 4.142 3.358 7.5 7.5 7.5s7.5-3.358 7.5-7.5v-36.114c0-4.142-3.358-7.5-7.5-7.5zm90 0c-4.142 0-7.5 3.358-7.5 7.5v36.114c0 4.142 3.358 7.5 7.5 7.5 4.143 0 7.5-3.358 7.5-7.5v-36.114c0-4.142-3.357-7.5-7.5-7.5z"/></g></svg>