<svg xmlns="http://www.w3.org/2000/svg" width="50" height="50" viewBox="0 0 50 50">
  <g id="Group_72" data-name="Group 72" transform="translate(-499.634 -2832.049)">
    <g id="Path_92" data-name="Path 92" transform="translate(499.634 2832.049)" fill="none">
      <path d="M25,0A24.984,24.984,0,1,1,2.576,13.935,25,25,0,0,1,25,0Z" stroke="none"/>
      <path d="M 25 1 C 20.39965057373047 1 15.92451095581055 2.300651550292969 12.05838012695313 4.761348724365234 C 8.314201354980469 7.144428253173828 5.347068786621094 10.46595001220703 3.477481842041016 14.367431640625 C 1.810390472412109 17.84040069580078 1 21.31834030151367 1 25 C 1 28.24041938781738 1.634418487548828 31.38338088989258 2.885631561279297 34.34157943725586 C 4.094371795654297 37.19935989379883 5.825000762939453 39.76612091064453 8.029441833496094 41.97055816650391 C 10.23387908935547 44.17499923706055 12.80064010620117 45.90563201904297 15.65842056274414 47.1143684387207 C 18.61661911010742 48.36558151245117 21.75958061218262 49 25 49 C 28.24041938781738 49 31.38338088989258 48.36558151245117 34.34157943725586 47.1143684387207 C 37.19935989379883 45.90563201904297 39.76612091064453 44.17499923706055 41.97055816650391 41.97055816650391 C 44.17499923706055 39.76612091064453 45.90563201904297 37.19935989379883 47.1143684387207 34.34157943725586 C 48.36558151245117 31.38338088989258 49 28.24041938781738 49 25 C 49 21.75958061218262 48.36558151245117 18.61661911010742 47.1143684387207 15.65842056274414 C 45.90563201904297 12.80064010620117 44.17499923706055 10.23387908935547 41.97055816650391 8.029441833496094 C 39.76612091064453 5.825000762939453 37.19935989379883 4.094371795654297 34.34157943725586 2.885631561279297 C 31.38338088989258 1.634418487548828 28.24041938781738 1 25 1 M 25 0 C 38.80712127685547 0 50 11.19287872314453 50 25 C 50 38.80712127685547 38.80712127685547 50 25 50 C 11.19287872314453 50 0 38.80712127685547 0 25 C 0 21.13401031494141 0.8775215148925781 17.47296905517578 2.575958251953125 13.93468856811523 C 6.472969055175781 5.802391052246094 15.05887985229492 0 25 0 Z" stroke="none" fill="#e27866"/>
    </g>
    <path id="Path_78" data-name="Path 78" d="M18.99,40.051s.307,1.5.376,1.818H18.017c.133-.36.646-1.757.646-1.757s.133-.368.214-.6l.113.541Zm4.278-6.112v14.22A1.94,1.94,0,0,1,21.329,50.1H1.939A1.94,1.94,0,0,1,0,48.159V33.939A1.94,1.94,0,0,1,1.939,32h19.39A1.94,1.94,0,0,1,23.268,33.939ZM6.16,44.087l2.553-6.27H7L5.409,42.1l-.174-.869L4.67,38.346a.676.676,0,0,0-.735-.529H1.321l-.028.125a6.41,6.41,0,0,1,1.7.691l1.446,5.454Zm3.813.008,1.018-6.278H9.368L8.354,44.095Zm5.651-2.052c.008-.715-.428-1.26-1.361-1.709-.57-.287-.917-.481-.917-.776.008-.267.295-.541.933-.541a2.784,2.784,0,0,1,1.208.238l.145.069.222-1.357A4.034,4.034,0,0,0,14.4,37.7c-1.6,0-2.731.856-2.739,2.076-.012.9.808,1.4,1.422,1.7s.84.509.84.78c-.008.42-.509.614-.974.614a3.236,3.236,0,0,1-1.523-.335l-.214-.1-.226,1.41a4.957,4.957,0,0,0,1.81.335c1.7,0,2.816-.84,2.828-2.141Zm5.7,2.052-1.309-6.278H18.764a.8.8,0,0,0-.848.521L15.5,44.095h1.7s.279-.776.339-.941h2.084c.048.222.194.941.194.941Z" transform="translate(513 2816)" fill="#e27866"/>
  </g>
</svg>
